<svg version="1.1" id="Layer_1" xmlns="http://www.w3.org/2000/svg" xmlns:xlink="http://www.w3.org/1999/xlink" x="0px" y="0px"
	 width="100%" viewBox="0 0 682 675" enable-background="new 0 0 682 675" xml:space="preserve">
<path fill="#FFFFFF" opacity="1.000000" stroke="none" 
	d="
M683.000000,250.000000 
	C683.000000,392.333313 683.000000,534.166626 683.000000,676.000000 
	C455.666718,676.000000 228.333420,676.000000 1.000099,676.000000 
	C1.000066,451.000061 1.000066,226.000137 1.000033,1.000160 
	C228.333237,1.000106 455.666473,1.000106 682.999878,1.000053 
	C683.000000,83.833336 683.000000,166.666672 683.000000,250.000000 
M37.500000,12.020620 
	C28.720798,12.020620 19.941597,12.020620 10.837986,12.020620 
	C10.837986,13.858378 10.837907,15.160247 10.837997,16.462116 
	C10.845592,125.444031 10.724311,234.426285 11.008250,343.407471 
	C11.048050,358.683289 12.197731,374.077942 14.338120,389.204681 
	C22.164013,444.512634 40.881378,495.871185 72.447243,542.182556 
	C101.519180,584.834961 138.695480,618.390381 185.254761,641.228088 
	C222.531296,659.512573 261.999390,669.078003 303.347992,671.284729 
	C370.441040,674.865417 434.803009,663.958435 494.960510,633.269836 
	C573.503235,593.202271 627.393982,531.405457 655.467651,447.557159 
	C663.303955,424.152191 667.825012,400.052917 669.662598,375.198425 
	C634.280029,375.198425 599.201538,375.198425 563.990845,375.198425 
	C563.284241,378.131989 562.651245,380.881104 561.959290,383.615265 
	C544.503174,452.596863 504.425720,503.204437 439.090118,532.299438 
	C390.094116,554.118103 338.448669,559.481384 285.602844,551.988281 
	C217.761673,542.368896 169.086945,506.183899 139.894028,444.147217 
	C120.183006,402.260162 112.714653,357.575897 112.173683,311.784821 
	C111.451286,250.636642 111.959984,189.473923 111.953415,128.317444 
	C111.953262,126.890373 112.112961,125.463280 112.219383,123.679588 
	C177.735458,123.679588 242.821976,123.679588 308.019745,123.679588 
	C308.019745,86.361534 308.019745,49.430927 308.019745,12.020620 
	C218.043961,12.020620 128.271988,12.020620 37.500000,12.020620 
M448.144409,155.644394 
	C424.278992,179.509308 400.413544,203.374222 376.941132,226.846100 
	C403.507874,253.412720 429.634857,279.539612 456.708069,306.612732 
	C494.121704,269.186523 531.830994,231.464539 569.865356,193.417328 
	C569.865356,231.168732 569.865356,268.722961 569.865356,306.520538 
	C603.703430,306.520538 637.083008,306.520538 670.502197,306.520538 
	C670.502197,208.209534 670.502197,110.209229 670.502197,12.261118 
	C572.336060,12.261118 474.583923,12.261118 376.662018,12.261118 
	C376.662018,49.539463 376.662018,86.574165 376.662018,124.086983 
	C410.902588,124.086983 444.766174,124.086983 479.745514,124.086983 
	C468.846222,134.970993 458.745361,145.057739 448.144409,155.644394 
z"/>
<path fill="#073372" opacity="1.000000" stroke="none" 
	d="
M38.000000,12.020620 
	C128.271988,12.020620 218.043961,12.020620 308.019745,12.020620 
	C308.019745,49.430927 308.019745,86.361534 308.019745,123.679588 
	C242.821976,123.679588 177.735458,123.679588 112.219383,123.679588 
	C112.112961,125.463280 111.953262,126.890373 111.953415,128.317444 
	C111.959984,189.473923 111.451286,250.636642 112.173683,311.784821 
	C112.714653,357.575897 120.183006,402.260162 139.894028,444.147217 
	C169.086945,506.183899 217.761673,542.368896 285.602844,551.988281 
	C338.448669,559.481384 390.094116,554.118103 439.090118,532.299438 
	C504.425720,503.204437 544.503174,452.596863 561.959290,383.615265 
	C562.651245,380.881104 563.284241,378.131989 563.990845,375.198425 
	C599.201538,375.198425 634.280029,375.198425 669.662598,375.198425 
	C667.825012,400.052917 663.303955,424.152191 655.467651,447.557159 
	C627.393982,531.405457 573.503235,593.202271 494.960510,633.269836 
	C434.803009,663.958435 370.441040,674.865417 303.347992,671.284729 
	C261.999390,669.078003 222.531296,659.512573 185.254761,641.228088 
	C138.695480,618.390381 101.519180,584.834961 72.447243,542.182556 
	C40.881378,495.871185 22.164013,444.512634 14.338120,389.204681 
	C12.197731,374.077942 11.048050,358.683289 11.008250,343.407471 
	C10.724311,234.426285 10.845592,125.444031 10.837997,16.462116 
	C10.837907,15.160247 10.837986,13.858378 10.837986,12.020620 
	C19.941597,12.020620 28.720798,12.020620 38.000000,12.020620 
z"/>
<path fill="#18BC91" opacity="1.000000" stroke="none" 
	d="
M448.394470,155.394440 
	C458.745361,145.057739 468.846222,134.970993 479.745514,124.086983 
	C444.766174,124.086983 410.902588,124.086983 376.662018,124.086983 
	C376.662018,86.574165 376.662018,49.539463 376.662018,12.261118 
	C474.583923,12.261118 572.336060,12.261118 670.502197,12.261118 
	C670.502197,110.209229 670.502197,208.209534 670.502197,306.520538 
	C637.083008,306.520538 603.703430,306.520538 569.865356,306.520538 
	C569.865356,268.722961 569.865356,231.168732 569.865356,193.417328 
	C531.830994,231.464539 494.121704,269.186523 456.708069,306.612732 
	C429.634857,279.539612 403.507874,253.412720 376.941132,226.846100 
	C400.413544,203.374222 424.278992,179.509308 448.394470,155.394440 
z"/>
</svg>