<svg version="1.1" id="Layer_1" xmlns="http://www.w3.org/2000/svg" xmlns:xlink="http://www.w3.org/1999/xlink" x="0px" y="0px"
	 width="100%" viewBox="0 0 860 192" enable-background="new 0 0 860 192" xml:space="preserve">
<path fill="#FEFEFE" opacity="1.000000" stroke="none" 
	d="
M589.000000,193.000000 
	C392.713165,193.000000 196.926346,193.000000 1.069755,193.000000 
	C1.069755,129.061768 1.069755,65.123436 1.069755,1.092552 
	C287.666656,1.092552 574.333313,1.092552 860.967529,1.092552 
	C860.967529,65.073715 860.967529,129.036865 860.967529,193.000000 
	C770.456726,193.000000 679.978333,193.000000 589.000000,193.000000 
M365.569092,113.500168 
	C365.569092,79.249802 365.569092,44.999432 365.569092,10.811695 
	C355.212952,10.811695 345.654449,10.811695 335.621521,10.811695 
	C335.621521,53.586552 335.621521,95.982704 335.621521,138.378860 
	C333.705536,137.262390 332.739166,135.812073 331.815063,134.335281 
	C308.520416,97.110031 284.901245,60.080986 262.174896,22.511889 
	C256.625854,13.338733 250.882202,8.794366 239.916626,10.222481 
	C231.784149,11.281623 223.402954,10.430853 215.177094,10.430853 
	C215.177094,69.670425 215.177094,128.239838 215.177094,186.748398 
	C225.086197,186.748398 234.660599,186.748398 244.892670,186.748398 
	C244.892670,142.987762 244.892670,99.533424 244.892670,54.673237 
	C246.802017,57.620148 247.893967,59.252098 248.933075,60.917030 
	C274.396057,101.715897 299.843811,142.524261 325.351501,183.295135 
	C326.247711,184.727631 327.706421,186.840561 328.942413,186.868103 
	C341.028931,187.137436 353.123810,187.030380 365.568970,187.030380 
	C365.568970,162.447952 365.568970,138.474060 365.569092,113.500168 
M701.981750,129.500000 
	C701.981750,148.593277 701.981750,167.686554 701.981750,187.055511 
	C722.688232,187.055511 742.819031,186.988785 762.949036,187.080688 
	C774.898438,187.135239 786.508911,185.313492 797.675537,181.101135 
	C825.744629,170.512634 844.973816,151.683624 850.990417,121.566643 
	C856.238342,95.297493 851.324158,70.719551 836.702148,48.110199 
	C822.043823,25.444643 801.068420,12.699130 774.470459,11.133942 
	C750.731934,9.737025 726.857727,10.643623 703.043335,10.559340 
	C702.772766,10.558383 702.501038,10.900661 701.981750,11.249300 
	C701.981750,50.223629 701.981750,89.361816 701.981750,129.500000 
M566.573364,187.057678 
	C602.650635,187.057678 638.727844,187.057678 674.629761,187.057678 
	C674.629761,177.680115 674.629761,168.959106 674.629761,159.827118 
	C646.164673,159.827118 618.092346,159.827118 590.091858,159.827118 
	C590.091858,143.297302 590.091858,127.196587 590.091858,110.597534 
	C615.571106,110.597534 640.799866,110.597534 666.187134,110.597534 
	C666.187134,101.407829 666.187134,92.724205 666.187134,83.528511 
	C640.561340,83.528511 615.330933,83.528511 590.133484,83.528511 
	C590.133484,67.906326 590.133484,52.804527 590.133484,37.199409 
	C617.166138,37.199409 643.904968,37.199409 670.585938,37.199409 
	C670.585938,28.098763 670.585938,19.508543 670.585938,10.804678 
	C633.600464,10.804678 596.902649,10.804678 560.311401,10.804678 
	C560.311401,69.739052 560.311401,128.300613 560.311401,187.057678 
	C562.292969,187.057678 563.944397,187.057678 566.573364,187.057678 
M106.084068,186.735901 
	C122.069656,185.274872 137.115723,180.880157 150.568253,171.925827 
	C173.271851,156.813751 185.852554,135.583694 188.781860,108.260468 
	C179.155014,108.260468 169.899612,108.260468 160.724716,108.260468 
	C149.267776,146.609467 112.500931,165.629852 75.483337,152.355423 
	C55.047588,145.027206 44.590710,128.775436 42.428993,108.586594 
	C40.046753,86.338219 40.833126,63.750412 40.265263,41.309803 
	C40.258724,41.051308 40.600647,40.783989 41.062408,40.106003 
	C57.873440,40.106003 74.962334,40.106003 92.203644,40.106003 
	C92.203644,30.104116 92.203644,20.525703 92.203644,10.850239 
	C65.733971,10.850239 39.551319,10.850239 13.231790,10.850239 
	C13.231790,41.740917 12.634459,72.230949 13.429851,102.684608 
	C14.015610,125.111946 21.880619,145.349777 37.323273,162.055237 
	C55.633430,181.862686 78.911484,188.510757 106.084068,186.735901 
M455.401001,184.168854 
	C489.554657,193.085770 526.617493,181.613571 542.003662,157.150421 
	C533.928528,151.424164 525.840637,145.688828 517.801086,139.987808 
	C495.240509,164.840408 463.657928,166.917877 440.986023,144.961914 
	C426.637390,131.066422 422.226044,113.373619 422.858337,93.906410 
	C423.767670,65.910225 446.264374,38.582619 476.768799,37.499302 
	C485.794312,37.178772 494.524841,38.340122 502.115540,43.372093 
	C506.890076,46.537201 510.964233,50.758835 515.713623,54.814770 
	C523.145996,48.917458 530.605408,42.998711 538.386780,36.824497 
	C536.810242,35.155109 535.493042,33.707581 534.120239,32.314888 
	C520.513489,18.510483 503.953583,11.358200 484.645050,10.658112 
	C457.857971,9.686866 433.640747,16.460823 414.862091,36.498646 
	C399.881439,52.483849 392.947113,72.155975 391.700348,93.989143 
	C389.252319,136.858383 412.254364,173.302917 455.401001,184.168854 
M145.500061,10.381196 
	C134.049744,10.381196 122.599442,10.381196 111.011742,10.381196 
	C111.011742,20.568930 111.011742,30.138403 111.011742,40.151836 
	C119.864052,40.151836 128.419891,40.151836 138.698486,40.151836 
	C128.723389,50.408688 119.805038,59.578938 111.543777,68.073547 
	C118.614899,75.220818 125.354942,82.033440 132.561966,89.318069 
	C141.919891,79.870399 151.583435,70.114182 162.138000,59.458405 
	C162.138000,70.291466 162.138000,79.968704 162.138000,89.667664 
	C171.355911,89.667664 179.944458,89.667664 188.696503,89.667664 
	C188.696503,63.209560 188.696503,37.008892 188.696503,10.381552 
	C174.422974,10.381552 160.461517,10.381552 145.500061,10.381196 
z"/>
<path fill="#0A3674" opacity="1.000000" stroke="none" 
	d="
M365.569031,114.000168 
	C365.568970,138.474060 365.568970,162.447952 365.568970,187.030380 
	C353.123810,187.030380 341.028931,187.137436 328.942413,186.868103 
	C327.706421,186.840561 326.247711,184.727631 325.351501,183.295135 
	C299.843811,142.524261 274.396057,101.715897 248.933075,60.917030 
	C247.893967,59.252098 246.802017,57.620148 244.892670,54.673237 
	C244.892670,99.533424 244.892670,142.987762 244.892670,186.748398 
	C234.660599,186.748398 225.086197,186.748398 215.177094,186.748398 
	C215.177094,128.239838 215.177094,69.670425 215.177094,10.430853 
	C223.402954,10.430853 231.784149,11.281623 239.916626,10.222481 
	C250.882202,8.794366 256.625854,13.338733 262.174896,22.511889 
	C284.901245,60.080986 308.520416,97.110031 331.815063,134.335281 
	C332.739166,135.812073 333.705536,137.262390 335.621521,138.378860 
	C335.621521,95.982704 335.621521,53.586552 335.621521,10.811695 
	C345.654449,10.811695 355.212952,10.811695 365.569092,10.811695 
	C365.569092,44.999432 365.569092,79.249802 365.569031,114.000168 
z"/>
<path fill="#093573" opacity="1.000000" stroke="none" 
	d="
M701.981750,129.000000 
	C701.981750,89.361816 701.981750,50.223629 701.981750,11.249300 
	C702.501038,10.900661 702.772766,10.558383 703.043335,10.559340 
	C726.857727,10.643623 750.731934,9.737025 774.470459,11.133942 
	C801.068420,12.699130 822.043823,25.444643 836.702148,48.110199 
	C851.324158,70.719551 856.238342,95.297493 850.990417,121.566643 
	C844.973816,151.683624 825.744629,170.512634 797.675537,181.101135 
	C786.508911,185.313492 774.898438,187.135239 762.949036,187.080688 
	C742.819031,186.988785 722.688232,187.055511 701.981750,187.055511 
	C701.981750,167.686554 701.981750,148.593277 701.981750,129.000000 
M790.584778,45.855602 
	C788.671082,44.644272 786.886414,43.119118 784.823425,42.271095 
	C767.740845,35.249340 749.843628,37.877178 732.111694,37.387447 
	C732.111694,78.581833 732.111694,119.163017 732.111694,160.589920 
	C745.184814,160.043930 758.066528,160.405426 770.694580,158.787430 
	C795.425598,155.618729 819.408630,142.494705 821.463745,108.586319 
	C823.047729,82.452171 815.126953,60.281647 790.584778,45.855602 
z"/>
<path fill="#0A3574" opacity="1.000000" stroke="none" 
	d="
M566.084595,187.057678 
	C563.944397,187.057678 562.292969,187.057678 560.311401,187.057678 
	C560.311401,128.300613 560.311401,69.739052 560.311401,10.804678 
	C596.902649,10.804678 633.600464,10.804678 670.585938,10.804678 
	C670.585938,19.508543 670.585938,28.098763 670.585938,37.199409 
	C643.904968,37.199409 617.166138,37.199409 590.133484,37.199409 
	C590.133484,52.804527 590.133484,67.906326 590.133484,83.528511 
	C615.330933,83.528511 640.561340,83.528511 666.187134,83.528511 
	C666.187134,92.724205 666.187134,101.407829 666.187134,110.597534 
	C640.799866,110.597534 615.571106,110.597534 590.091858,110.597534 
	C590.091858,127.196587 590.091858,143.297302 590.091858,159.827118 
	C618.092346,159.827118 646.164673,159.827118 674.629761,159.827118 
	C674.629761,168.959106 674.629761,177.680115 674.629761,187.057678 
	C638.727844,187.057678 602.650635,187.057678 566.084595,187.057678 
z"/>
<path fill="#0A3573" opacity="1.000000" stroke="none" 
	d="
M105.618835,186.779282 
	C78.911484,188.510757 55.633430,181.862686 37.323273,162.055237 
	C21.880619,145.349777 14.015610,125.111946 13.429851,102.684608 
	C12.634459,72.230949 13.231790,41.740917 13.231790,10.850239 
	C39.551319,10.850239 65.733971,10.850239 92.203644,10.850239 
	C92.203644,20.525703 92.203644,30.104116 92.203644,40.106003 
	C74.962334,40.106003 57.873440,40.106003 41.062408,40.106003 
	C40.600647,40.783989 40.258724,41.051308 40.265263,41.309803 
	C40.833126,63.750412 40.046753,86.338219 42.428993,108.586594 
	C44.590710,128.775436 55.047588,145.027206 75.483337,152.355423 
	C112.500931,165.629852 149.267776,146.609467 160.724716,108.260468 
	C169.899612,108.260468 179.155014,108.260468 188.781860,108.260468 
	C185.852554,135.583694 173.271851,156.813751 150.568253,171.925827 
	C137.115723,180.880157 122.069656,185.274872 105.618835,186.779282 
z"/>
<path fill="#093573" opacity="1.000000" stroke="none" 
	d="
M454.994629,184.087158 
	C412.254364,173.302917 389.252319,136.858383 391.700348,93.989143 
	C392.947113,72.155975 399.881439,52.483849 414.862091,36.498646 
	C433.640747,16.460823 457.857971,9.686866 484.645050,10.658112 
	C503.953583,11.358200 520.513489,18.510483 534.120239,32.314888 
	C535.493042,33.707581 536.810242,35.155109 538.386780,36.824497 
	C530.605408,42.998711 523.145996,48.917458 515.713623,54.814770 
	C510.964233,50.758835 506.890076,46.537201 502.115540,43.372093 
	C494.524841,38.340122 485.794312,37.178772 476.768799,37.499302 
	C446.264374,38.582619 423.767670,65.910225 422.858337,93.906410 
	C422.226044,113.373619 426.637390,131.066422 440.986023,144.961914 
	C463.657928,166.917877 495.240509,164.840408 517.801086,139.987808 
	C525.840637,145.688828 533.928528,151.424164 542.003662,157.150421 
	C526.617493,181.613571 489.554657,193.085770 454.994629,184.087158 
z"/>
<path fill="#1ABD92" opacity="1.000000" stroke="none" 
	d="
M146.000061,10.381374 
	C160.461517,10.381552 174.422974,10.381552 188.696503,10.381552 
	C188.696503,37.008892 188.696503,63.209560 188.696503,89.667664 
	C179.944458,89.667664 171.355911,89.667664 162.138000,89.667664 
	C162.138000,79.968704 162.138000,70.291466 162.138000,59.458405 
	C151.583435,70.114182 141.919891,79.870399 132.561966,89.318069 
	C125.354942,82.033440 118.614899,75.220818 111.543777,68.073547 
	C119.805038,59.578938 128.723389,50.408688 138.698486,40.151836 
	C128.419891,40.151836 119.864052,40.151836 111.011742,40.151836 
	C111.011742,30.138403 111.011742,20.568930 111.011742,10.381196 
	C122.599442,10.381196 134.049744,10.381196 146.000061,10.381374 
z"/>
<path fill="#FEFEFE" opacity="1.000000" stroke="none" 
	d="
M790.926758,45.997761 
	C815.126953,60.281647 823.047729,82.452171 821.463745,108.586319 
	C819.408630,142.494705 795.425598,155.618729 770.694580,158.787430 
	C758.066528,160.405426 745.184814,160.043930 732.111694,160.589920 
	C732.111694,119.163017 732.111694,78.581833 732.111694,37.387447 
	C749.843628,37.877178 767.740845,35.249340 784.823425,42.271095 
	C786.886414,43.119118 788.671082,44.644272 790.926758,45.997761 
z"/>
</svg>