<svg xmlns="http://www.w3.org/2000/svg" xmlns:xlink="http://www.w3.org/1999/xlink" version="1.1" id="Layer_1" x="0px" y="0px" width="100%" viewBox="0 0 361 355" enable-background="new 0 0 361 355" xml:space="preserve">
<path fill="#14A18B" opacity="1.000000" stroke="none" d=" M100.000000,356.000000   C99.250000,356.000000 98.500000,356.000000 97.261978,355.683441   C72.315628,330.816803 47.869541,306.254517 23.391251,281.724365   C16.372875,274.691132 9.261427,267.750793 1.297479,259.883545   C43.181293,218.003647 84.571480,176.617340 126.616112,134.576645   C123.869995,134.437119 121.795601,134.240936 119.721115,134.239807   C82.560638,134.219757 45.400105,134.194702 8.239758,134.264847   C4.407850,134.272079 2.017278,133.807602 2.037947,128.957184   C2.218302,86.632553 2.198620,44.307072 2.375011,1.826267   C2.685898,1.455461 2.848669,1.231895 3.000000,1.000000   C122.020897,1.000000 241.041794,1.000000 360.531372,1.466985   C361.000031,119.955978 361.000000,237.977997 361.000000,356.000000   C319.979095,356.000000 278.958221,356.000000 237.543182,355.536102   C237.186356,311.261200 237.229050,267.450195 237.232437,223.639191   C237.232529,222.448517 236.808929,221.257812 236.434647,219.286072   C234.482346,221.123001 233.135818,222.324448 231.861679,223.598282   C189.096786,266.351959 146.336380,309.110138 103.591270,351.883575   C102.307045,353.168640 101.193260,354.624023 100.000000,356.000000  z"/>
<path fill="transparent" opacity="1.000000" stroke="none" d=" M2.238336,1.981839   C2.198620,44.307072 2.218302,86.632553 2.037947,128.957184   C2.017278,133.807602 4.407850,134.272079 8.239758,134.264847   C45.400105,134.194702 82.560638,134.219757 119.721115,134.239807   C121.795601,134.240936 123.869995,134.437119 126.616112,134.576645   C84.571480,176.617340 43.181293,218.003647 1.297479,259.883545   C9.261427,267.750793 16.372875,274.691132 23.391251,281.724365   C47.869541,306.254517 72.315628,330.816803 96.886978,355.683441   C65.035431,356.000000 33.070866,356.000000 1.000000,356.000000   C1.000000,237.666687 1.000000,119.333344 1.546533,1.248628   C2.141490,1.658783 2.189913,1.820311 2.238336,1.981839  z"/>
<path fill="transparent" opacity="1.000000" stroke="none" d=" M100.468658,356.000000   C101.193260,354.624023 102.307045,353.168640 103.591270,351.883575   C146.336380,309.110138 189.096786,266.351959 231.861679,223.598282   C233.135818,222.324448 234.482346,221.123001 236.434647,219.286072   C236.808929,221.257812 237.232529,222.448517 237.232437,223.639191   C237.229050,267.450195 237.186356,311.261200 237.074524,355.536102   C191.645767,356.000000 146.291550,356.000000 100.468658,356.000000  z"/>
<path fill="#073372" opacity="1.000000" stroke="none" d=" M361.500000,356.000000   C361.000000,237.977997 361.000031,119.955978 361.000031,1.466983   C361.333344,2.499996 361.957306,3.999804 361.958313,5.500023   C362.006012,77.999992 362.000000,150.500000 362.000000,223.000000   C362.000000,267.333344 362.000000,311.666656 361.500000,356.000000  z"/>
<path fill="#118C85" opacity="1.000000" stroke="none" d=" M2.375011,1.826267   C2.189913,1.820311 2.141490,1.658783 2.046533,1.248628   C2.000000,1.000000 2.500000,1.000000 2.750000,1.000000   C2.848669,1.231895 2.685898,1.455461 2.375011,1.826267  z"/>
</svg>